<?xml version="1.0" standalone="no"?>
<!DOCTYPE svg PUBLIC "-//W3C//DTD SVG 20010904//EN"
 "http://www.w3.org/TR/2001/REC-SVG-20010904/DTD/svg10.dtd">
<svg xmlns="http://www.w3.org/2000/svg" width="800px" height="800px" viewBox="0 0 1024 1024" class="icon" version="1.1">
    <path
        d="M474.1 155.6v28.6H494c-1.4-3.2-2-6.8-1.4-10.6 1.2-8.8 8.4-15.8 17.2-16.8 11.8-1.3 21.8 7.9 21.8 19.5 0 2.8-0.6 5.5-1.6 7.9h19.9v-28.6c0-9.1-7.4-16.4-16.4-16.4h-42.9c-9.1 0-16.5 7.3-16.5 16.4z"
        fill="#D5D9CF"/>
    <path
        d="M555.4 189.7h-33.8l3.4-7.7c0.8-1.8 1.2-3.7 1.2-5.7 0-4-1.7-7.9-4.7-10.5-3-2.7-7-4-11-3.5-6.3 0.7-11.5 5.8-12.4 12-0.4 2.7 0 5.3 1 7.7l3.4 7.7h-33.8v-34.1c0-12.1 9.8-21.9 21.9-21.9h42.9c12.1 0 21.9 9.8 21.9 21.9v34.1z m-18.4-11h7.3v-23.1c0-6-4.9-10.9-10.9-10.9h-42.9c-6 0-10.9 4.9-10.9 10.9v23.1h7.3c-0.2-1.9-0.1-3.9 0.1-5.9 1.5-11.2 10.8-20.3 22.1-21.5 7.1-0.8 14.3 1.5 19.6 6.3 5.3 4.8 8.4 11.6 8.4 18.7 0 0.8 0 1.6-0.1 2.4z"
        fill="#333336"/>
    <path
        d="M754 884.8H270c-15.3 0-27.7-12.4-27.7-27.7V214c0-15.3 12.4-27.7 27.7-27.7h484c15.3 0 27.7 12.4 27.7 27.7v643c0.1 15.4-12.4 27.8-27.7 27.8z"
        fill="#68A240"/>
    <path
        d="M754 890.3H270c-18.3 0-33.2-14.9-33.2-33.2V214c0-18.3 14.9-33.2 33.2-33.2h484c18.3 0 33.2 14.9 33.2 33.2v643c0.1 18.4-14.8 33.3-33.2 33.3zM270 191.8c-12.3 0-22.2 10-22.2 22.2v643c0 12.3 10 22.2 22.2 22.2h484c12.3 0 22.2-10 22.2-22.2V214c0-12.3-10-22.2-22.2-22.2H270z"
        fill="#333336"/>
    <path d="M344.2 231.1h335.6v516H344.2z" fill="#F2F0E7"/>
    <path d="M685.3 752.6H338.7v-527h346.6v527z m-335.6-11h324.6v-505H349.7v505z" fill="#333336"/>
    <path
        d="M630.2 289H393.8v-70.9c0-16.1 13.1-29.3 29.3-29.3h177.8c16.1 0 29.3 13.1 29.3 29.3V289z m-225.4-11h214.3v-59.9c0-10.1-8.2-18.3-18.3-18.3H423.1c-10.1 0-18.3 8.2-18.3 18.3V278z"
        fill="#333336"/>
    <path d="M614.9 249.2v21.1c0 2-1.6 3.5-3.5 3.5h-21.1v20h37.4c4 0 7.3-3.3 7.3-7.3v-37.4h-20.1z" fill="#68A240"/>
    <path
        d="M627.6 299.3h-42.9v-31h24.7v-24.7h31v42.9c0 7.1-5.7 12.8-12.8 12.8z m-31.9-11h31.9c1 0 1.8-0.8 1.8-1.8v-31.9h-9v15.6c0 5-4.1 9-9 9h-15.6v9.1z"
        fill="#333336"/>
    <path d="M409.2 249.2v21.1c0 2 1.6 3.5 3.5 3.5h21.1v20h-37.4c-4 0-7.3-3.3-7.3-7.3v-37.4h20.1z" fill="#68A240"/>
    <path
        d="M439.4 299.3h-42.9c-7.1 0-12.8-5.7-12.8-12.8v-42.9h31v24.7h24.7v31z m-44.7-44.6v31.9c0 1 0.8 1.8 1.8 1.8h31.9v-9h-15.6c-5 0-9-4.1-9-9v-15.6h-9.1z"
        fill="#333336"/>
    <path
        d="M589.1 213.1H434.9c-9.4 0-16.9-7.6-16.9-16.9 0-9.4 7.6-16.9 16.9-16.9H589c9.4 0 16.9 7.6 16.9 16.9 0.1 9.3-7.5 16.9-16.8 16.9z"
        fill="#D5D9CF"/>
    <path
        d="M589.1 218.6H434.9c-12.4 0-22.4-10.1-22.4-22.4s10.1-22.4 22.4-22.4H589c12.4 0 22.4 10.1 22.4 22.4s-10 22.4-22.3 22.4z m-154.2-33.9c-6.3 0-11.4 5.1-11.4 11.4s5.1 11.4 11.4 11.4H589c6.3 0 11.4-5.1 11.4-11.4s-5.1-11.4-11.4-11.4H434.9zM276 237.7h-31.8c-3 0-5.5-2.5-5.5-5.5s2.5-5.5 5.5-5.5H276c3 0 5.5 2.5 5.5 5.5s-2.5 5.5-5.5 5.5zM266 275.7h-21.8c-3 0-5.5-2.5-5.5-5.5s2.5-5.5 5.5-5.5H266c3 0 5.5 2.5 5.5 5.5s-2.5 5.5-5.5 5.5zM276 313.7h-31.8c-3 0-5.5-2.5-5.5-5.5s2.5-5.5 5.5-5.5H276c3 0 5.5 2.5 5.5 5.5s-2.5 5.5-5.5 5.5zM266 351.7h-21.8c-3 0-5.5-2.5-5.5-5.5s2.5-5.5 5.5-5.5H266c3 0 5.5 2.5 5.5 5.5s-2.5 5.5-5.5 5.5zM276 389.7h-31.8c-3 0-5.5-2.5-5.5-5.5s2.5-5.5 5.5-5.5H276c3 0 5.5 2.5 5.5 5.5s-2.5 5.5-5.5 5.5zM266 427.7h-21.8c-3 0-5.5-2.5-5.5-5.5s2.5-5.5 5.5-5.5H266c3 0 5.5 2.5 5.5 5.5s-2.5 5.5-5.5 5.5zM276 465.7h-31.8c-3 0-5.5-2.5-5.5-5.5s2.5-5.5 5.5-5.5H276c3 0 5.5 2.5 5.5 5.5s-2.5 5.5-5.5 5.5zM266 503.7h-21.8c-3 0-5.5-2.5-5.5-5.5s2.5-5.5 5.5-5.5H266c3 0 5.5 2.5 5.5 5.5s-2.5 5.5-5.5 5.5zM276 541.7h-31.8c-3 0-5.5-2.5-5.5-5.5s2.5-5.5 5.5-5.5H276c3 0 5.5 2.5 5.5 5.5s-2.5 5.5-5.5 5.5zM266 579.7h-21.8c-3 0-5.5-2.5-5.5-5.5s2.5-5.5 5.5-5.5H266c3 0 5.5 2.5 5.5 5.5s-2.5 5.5-5.5 5.5zM276 617.7h-31.8c-3 0-5.5-2.5-5.5-5.5s2.5-5.5 5.5-5.5H276c3 0 5.5 2.5 5.5 5.5s-2.5 5.5-5.5 5.5zM266 655.7h-21.8c-3 0-5.5-2.5-5.5-5.5s2.5-5.5 5.5-5.5H266c3 0 5.5 2.5 5.5 5.5s-2.5 5.5-5.5 5.5z"
        fill="#333336"/>
    <path d="M276 693.7h-31.8c-3 0-5.5-2.5-5.5-5.5s2.5-5.5 5.5-5.5H276c3 0 5.5 2.5 5.5 5.5s-2.5 5.5-5.5 5.5z"
          fill="#333336"/>
    <path d="M266 731.7h-21.8c-3 0-5.5-2.5-5.5-5.5s2.5-5.5 5.5-5.5H266c3 0 5.5 2.5 5.5 5.5s-2.5 5.5-5.5 5.5z"
          fill="#333336"/>
    <path d="M276 769.7h-31.8c-3 0-5.5-2.5-5.5-5.5s2.5-5.5 5.5-5.5H276c3 0 5.5 2.5 5.5 5.5s-2.5 5.5-5.5 5.5z"
          fill="#333336"/>
    <path d="M266 807.7h-21.8c-3 0-5.5-2.5-5.5-5.5s2.5-5.5 5.5-5.5H266c3 0 5.5 2.5 5.5 5.5s-2.5 5.5-5.5 5.5z"
          fill="#333336"/>
    <path d="M276 845.7h-31.8c-3 0-5.5-2.5-5.5-5.5s2.5-5.5 5.5-5.5H276c3 0 5.5 2.5 5.5 5.5s-2.5 5.5-5.5 5.5z"
          fill="#333336"/>
    <path
        d="M634.2 614.8l-54.6 54.6c-2.8 2.8-7.4 2.8-10.2 0l-97-97c-6.1-6.1-6.1-16.1 0-22.3l42.6-42.6c6.1-6.1 16.1-6.1 22.3 0l97 97c2.8 2.9 2.8 7.5-0.1 10.3z"
        fill="#D5D9CF"/>
    <path
        d="M574.5 677.1c-3.4 0-6.6-1.3-9-3.7l-97-97c-4-4-6.2-9.3-6.2-15s2.2-11 6.2-15l42.6-42.6c8.3-8.3 21.8-8.3 30 0l97 97c5 5 5 13 0 18l-54.6 54.6c-2.4 2.3-5.6 3.7-9 3.7z m-48.4-168.6c-2.6 0-5.2 1-7.2 3L476.2 554c-1.9 1.9-3 4.5-3 7.2s1.1 5.3 3 7.2l97 97c0.4 0.4 0.9 0.5 1.2 0.5 0.3 0 0.8-0.1 1.2-0.5l54.6-54.6c0.7-0.7 0.7-1.7 0-2.4l-97-97c-1.9-1.9-4.5-2.9-7.1-2.9z"
        fill="#333336"/>
    <path d="M497.511 597.634l64.842-64.84 58.9 58.9-64.84 64.842z" fill="#FFD632"/>
    <path
        d="M556.4 664.2l-66.7-66.7 72.6-72.6 66.7 66.7-72.6 72.6z m-51.1-66.6l51.1 51.1 57.1-57.1-51.1-51.1-57.1 57.1z"
        fill="#333336"/>
    <path d="M531.7 602.8l16.4 16.5" fill="#68A240"/>
    <path
        d="M548.1 624.8c-1.4 0-2.8-0.5-3.9-1.6l-16.5-16.5c-2.1-2.1-2.1-5.6 0-7.8 2.1-2.1 5.6-2.1 7.8 0l16.5 16.5c2.1 2.1 2.1 5.6 0 7.8-1 1.1-2.4 1.6-3.9 1.6z"
        fill="#333336"/>
    <path d="M550.1 584.4l16.5 16.5" fill="#68A240"/>
    <path
        d="M566.6 606.4c-1.4 0-2.8-0.5-3.9-1.6l-16.5-16.5c-2.1-2.1-2.1-5.6 0-7.8 2.1-2.1 5.6-2.1 7.8 0l16.5 16.5c2.1 2.1 2.1 5.6 0 7.8-1.1 1.1-2.5 1.6-3.9 1.6z"
        fill="#333336"/>
    <path d="M568.6 565.9l16.5 16.5" fill="#68A240"/>
    <path
        d="M585.1 587.9c-1.4 0-2.8-0.5-3.9-1.6l-16.5-16.5c-2.1-2.1-2.1-5.6 0-7.8 2.1-2.1 5.6-2.1 7.8 0l16.5 16.5c2.1 2.1 2.1 5.6 0 7.8-1.1 1-2.5 1.6-3.9 1.6z"
        fill="#333336"/>
</svg>
